<svg width="38" height="38" viewBox="0 0 38 38" fill="none" xmlns="http://www.w3.org/2000/svg">
<g clip-path="url(#clip0_62_82)">
<path d="M19.2718 24.8565C22.5505 24.8043 25.166 22.1042 25.1139 18.8256C25.0617 15.547 22.3616 12.9314 19.083 12.9836C15.8043 13.0357 13.1888 15.7358 13.2409 19.0145C13.2931 22.2931 15.9932 24.9086 19.2718 24.8565Z" fill="#A0616A"/>
<path d="M14.3796 26.2639L15.5668 23.0817L21.9452 22.0175L22.7435 29.0071L16.2832 29.2475L14.3796 26.2639Z" fill="#A0616A"/>
<path d="M25.189 19.92C25.1168 20.2299 24.9728 20.9673 24.7296 20.9748C24.531 20.9809 24.29 17.7955 24.4801 17.265C24.6985 16.6555 24.0871 15.8986 23.6295 15.5123C22.8067 14.8179 21.0295 16.3655 19.1867 15.7065C19.1379 15.6891 19.1476 15.691 18.5655 15.4694C16.7743 14.7876 16.6804 14.7685 16.5782 14.76C15.714 14.6884 14.6723 15.4112 14.256 16.2789C13.8232 17.1809 14.2089 17.9426 13.823 20.1142C13.778 20.3674 13.7068 20.7283 13.5859 20.7355C13.3648 20.7486 13.13 19.5704 13.0685 19.2618C12.8108 17.9688 12.5624 16.7222 13.0056 15.3109C13.054 15.1569 13.3579 14.5836 13.9639 13.4432C14.8368 11.8003 15.2759 10.9758 15.4042 10.8268C16.3244 9.75825 18.0146 8.76992 19.453 9.15696C20.18 9.35259 20.0556 9.68767 20.9484 9.99765C22.5393 10.55 23.9029 9.82184 24.1643 10.317C24.3029 10.5792 23.9305 10.8032 23.9331 11.3086C23.9376 12.1758 25.0381 12.4089 25.6931 13.2566C26.0451 13.7123 26.6353 13.7078 25.189 19.92Z" fill="#2F2E41"/>
<path d="M32.7245 31.1981C32.4895 31.4707 32.2455 31.738 31.9925 31.9992C28.5934 35.5081 24.0312 37.4835 19.1465 37.5612C14.9246 37.6284 10.8987 36.271 7.61831 33.7066C7.61622 33.7053 7.61482 33.7039 7.61274 33.7019C7.17754 33.3623 6.75574 33.0004 6.34805 32.6176C6.35464 32.557 6.36194 32.4971 6.36993 32.4378C6.41997 32.0381 6.47649 31.6569 6.54103 31.3059C7.06947 28.4285 14.5751 25.2971 14.7705 25.2156C14.7732 25.2149 14.7746 25.2142 14.7746 25.2142C14.7746 25.2142 15.8037 28.782 19.9685 28.6696C22.8053 28.5936 22.1995 25.0961 22.1995 25.0961C22.1995 25.0961 22.234 25.1024 22.2989 25.1151C23.1211 25.276 28.8308 26.4353 31.1026 28.1054C31.7949 28.6142 32.3034 29.7133 32.6771 31.0276C32.6931 31.0838 32.7084 31.1413 32.7245 31.1981Z" fill="#5B28A2"/>
</g>
<defs>
<clipPath id="clip0_62_82">
<rect x="0.277344" y="1.27734" width="36.5795" height="36.5795" rx="18.2897" transform="rotate(-0.91148 0.277344 1.27734)" fill="white"/>
</clipPath>
</defs>
</svg>
