<svg width="45" height="45" viewBox="0 0 45 45" fill="none" xmlns="http://www.w3.org/2000/svg">
<g clip-path="url(#clip0_300_168)">
<path d="M22.9026 29.375C26.9364 29.375 30.2065 26.105 30.2065 22.0711C30.2065 18.0372 26.9364 14.7671 22.9026 14.7671C18.8687 14.7671 15.5986 18.0372 15.5986 22.0711C15.5986 26.105 18.8687 29.375 22.9026 29.375Z" fill="#A0616A"/>
<path d="M16.8571 31.0106L18.3796 27.1196L26.2462 25.9354L27.0914 34.5485L19.1402 34.7177L16.8571 31.0106Z" fill="#A0616A"/>
<path d="M30.2773 23.4187C30.1825 23.7985 29.9909 24.7027 29.6916 24.7072C29.4471 24.7107 29.2131 20.7879 29.4573 20.139C29.7379 19.3936 29.0007 18.4506 28.4453 17.9666C27.4469 17.0962 25.2305 18.9651 22.9767 18.1185C22.917 18.0961 22.9289 18.0986 22.2172 17.8147C20.0273 16.9409 19.9122 16.9157 19.7867 16.9032C18.7251 16.7982 17.4295 17.6669 16.9005 18.7261C16.3505 19.8271 16.81 20.7715 16.2929 23.4352C16.2326 23.7457 16.1379 24.1882 15.989 24.1947C15.7168 24.2066 15.451 22.7526 15.3814 22.3718C15.0898 20.7764 14.8086 19.2382 15.3814 17.5108C15.4439 17.3224 15.829 16.6231 16.5967 15.2323C17.7026 13.2285 18.2588 12.2229 18.4195 12.0422C19.5723 10.7458 21.6707 9.56322 23.4324 10.0675C24.3229 10.3223 24.1632 10.732 25.2553 11.1308C27.2015 11.8414 28.8929 10.9724 29.2049 11.5865C29.3701 11.9118 28.9078 12.18 28.9011 12.8018C28.8896 13.8685 30.2387 14.1768 31.0277 15.2323C31.4519 15.7997 32.1779 15.8058 30.2773 23.4187Z" fill="#2F2E41"/>
<path d="M39.3259 37.4389C39.0316 37.7696 38.7262 38.0936 38.4099 38.4099C34.1602 42.6595 28.5099 45 22.5 45C17.3055 45 12.3801 43.2516 8.3952 40.0331C8.39266 40.0315 8.39096 40.0297 8.38845 40.0272C7.85978 39.6009 7.34803 39.1475 6.85403 38.6687C6.86333 38.5943 6.87349 38.5207 6.88447 38.4479C6.95384 37.9574 7.03083 37.4896 7.11709 37.059C7.82339 33.5301 17.1169 29.8252 17.3588 29.7288C17.3622 29.7279 17.3639 29.7271 17.3639 29.7271C17.3639 29.7271 18.56 34.1358 23.685 34.0791C27.1759 34.041 26.4992 29.7271 26.4992 29.7271C26.4992 29.7271 26.5415 29.7355 26.621 29.7525C27.6293 29.9665 34.6297 31.5043 37.3914 33.6029C38.2331 34.2423 38.837 35.6042 39.271 37.2282C39.2896 37.2976 39.3073 37.3686 39.3259 37.4389Z" fill="#5B28A2"/>
<mask id="path-5-inside-1_300_168" fill="white">
<path d="M38.4099 6.59014C34.1603 2.34058 28.5099 0 22.5 0C16.4901 0 10.8398 2.34058 6.59012 6.59014C2.34052 10.8398 0 16.4901 0 22.5C0 27.9855 1.94972 33.1714 5.52265 37.2663C5.86354 37.6579 6.21965 38.0394 6.59012 38.4099C6.67725 38.497 6.76522 38.5841 6.85404 38.6687C7.34804 39.1475 7.85979 39.6009 8.38845 40.0272C8.39097 40.0297 8.39267 40.0315 8.39521 40.0331C12.3801 43.2516 17.3056 45 22.5 45C28.5099 45 34.1603 42.6595 38.4099 38.4099C38.7262 38.0936 39.0316 37.7696 39.326 37.4388C42.9945 33.3178 45 28.0633 45 22.5C45 16.4901 42.6595 10.8398 38.4099 6.59014ZM39.271 37.2282C38.6053 37.9853 37.8897 38.6975 37.1284 39.3581C35.6845 40.6142 34.0774 41.6868 32.3442 42.5411C31.736 42.8414 31.1126 43.1146 30.4748 43.3591C27.9973 44.3098 25.3083 44.8308 22.5 44.8308C19.7898 44.8308 17.1914 44.3454 14.7866 43.4572C13.7994 43.0934 12.8453 42.6612 11.9292 42.1664C11.7947 42.0937 11.6611 42.0201 11.5283 41.9448C10.8296 41.5489 10.1538 41.1167 9.50499 40.6497C8.57539 39.9832 7.69906 39.2465 6.88448 38.4479C6.42773 38.0005 5.99127 37.5344 5.57426 37.0498C2.20687 33.1385 0.169173 28.0531 0.169173 22.5C0.169173 10.1868 10.1867 0.169173 22.5 0.169173C34.8133 0.169173 44.8308 10.1868 44.8308 22.5C44.8308 28.1385 42.7306 33.2949 39.271 37.2282Z"/>
</mask>
<path d="M38.4099 6.59014C34.1603 2.34058 28.5099 0 22.5 0C16.4901 0 10.8398 2.34058 6.59012 6.59014C2.34052 10.8398 0 16.4901 0 22.5C0 27.9855 1.94972 33.1714 5.52265 37.2663C5.86354 37.6579 6.21965 38.0394 6.59012 38.4099C6.67725 38.497 6.76522 38.5841 6.85404 38.6687C7.34804 39.1475 7.85979 39.6009 8.38845 40.0272C8.39097 40.0297 8.39267 40.0315 8.39521 40.0331C12.3801 43.2516 17.3056 45 22.5 45C28.5099 45 34.1603 42.6595 38.4099 38.4099C38.7262 38.0936 39.0316 37.7696 39.326 37.4388C42.9945 33.3178 45 28.0633 45 22.5C45 16.4901 42.6595 10.8398 38.4099 6.59014ZM39.271 37.2282C38.6053 37.9853 37.8897 38.6975 37.1284 39.3581C35.6845 40.6142 34.0774 41.6868 32.3442 42.5411C31.736 42.8414 31.1126 43.1146 30.4748 43.3591C27.9973 44.3098 25.3083 44.8308 22.5 44.8308C19.7898 44.8308 17.1914 44.3454 14.7866 43.4572C13.7994 43.0934 12.8453 42.6612 11.9292 42.1664C11.7947 42.0937 11.6611 42.0201 11.5283 41.9448C10.8296 41.5489 10.1538 41.1167 9.50499 40.6497C8.57539 39.9832 7.69906 39.2465 6.88448 38.4479C6.42773 38.0005 5.99127 37.5344 5.57426 37.0498C2.20687 33.1385 0.169173 28.0531 0.169173 22.5C0.169173 10.1868 10.1867 0.169173 22.5 0.169173C34.8133 0.169173 44.8308 10.1868 44.8308 22.5C44.8308 28.1385 42.7306 33.2949 39.271 37.2282Z" fill="#3F3D56"/>
<path d="M38.4099 6.59014L73.7653 -28.7651L73.765 -28.7655L38.4099 6.59014ZM6.59012 6.59014L-28.7649 -28.7655L-28.7654 -28.765L6.59012 6.59014ZM5.52265 37.2663L43.2366 4.43858L43.217 4.41602L43.1973 4.39349L5.52265 37.2663ZM6.59012 38.4099L-28.7692 73.7613L-28.7609 73.7696L-28.7527 73.7778L6.59012 38.4099ZM6.85404 38.6687L41.652 2.76463L41.4946 2.61213L41.3359 2.46102L6.85404 38.6687ZM8.38845 40.0272L44.0252 4.9555L42.009 2.90681L39.7713 1.10266L8.38845 40.0272ZM8.39521 40.0331L39.8117 1.13577L37.8109 -0.48021L35.6549 -1.88238L8.39521 40.0331ZM38.4099 38.4099L73.765 73.7655L73.7663 73.7641L38.4099 38.4099ZM39.326 37.4388L1.97964 4.19349L1.97699 4.19648L39.326 37.4388ZM39.271 37.2282L1.72733 4.20584L1.72217 4.21172L39.271 37.2282ZM37.1284 39.3581L4.3566 1.59559L4.33405 1.61516L4.31153 1.63475L37.1284 39.3581ZM32.3442 42.5411L10.2367 -2.30595L10.2232 -2.2993L10.2097 -2.29263L32.3442 42.5411ZM30.4748 43.3591L12.5765 -3.32767L12.5687 -3.32466L12.5608 -3.32164L30.4748 43.3591ZM14.7866 43.4572L32.1093 -3.44612L32.0928 -3.45223L32.0762 -3.45833L14.7866 43.4572ZM11.9292 42.1664L-11.8439 86.1532L-11.8356 86.1577L11.9292 42.1664ZM11.5283 41.9448L-13.1223 85.4459L-13.1212 85.4466L11.5283 41.9448ZM9.50499 40.6497L38.7138 0.068431L38.677 0.0418826L38.64 0.0154013L9.50499 40.6497ZM6.88448 38.4479L41.8864 2.74269L41.8805 2.73691L41.8746 2.73114L6.88448 38.4479ZM5.57426 37.0498L43.4751 4.43804L43.4659 4.42734L5.57426 37.0498ZM73.765 -28.7655C60.1391 -42.3911 41.7713 -50 22.5 -50V50C15.2484 50 8.18142 47.0723 3.05479 41.9457L73.765 -28.7655ZM22.5 -50C3.22859 -50 -15.1391 -42.3911 -28.7649 -28.7655L41.9451 41.9458C36.8186 47.0723 29.7517 50 22.5 50V-50ZM-28.7654 -28.765C-42.3913 -15.1389 -50 3.22891 -50 22.5H50C50 29.7514 47.0724 36.8185 41.9456 41.9453L-28.7654 -28.765ZM-50 22.5C-50 40.0459 -43.6893 56.9165 -32.152 70.1391L43.1973 4.39349C47.5887 9.42636 50 15.925 50 22.5H-50ZM-32.1913 70.094C-31.0856 71.3643 -29.9433 72.5869 -28.7692 73.7613L41.9494 3.05855C42.3826 3.49186 42.8126 3.95152 43.2366 4.43858L-32.1913 70.094ZM-28.7527 73.7778C-28.5932 73.9372 -28.1635 74.3664 -27.6279 74.8765L41.3359 2.46102C41.528 2.64391 41.6792 2.79154 41.7742 2.88492C41.8671 2.97626 41.9301 3.03923 41.9329 3.04207L-28.7527 73.7778ZM-27.9439 74.5728C-26.3863 76.0824 -24.737 77.5467 -22.9944 78.9517L39.7713 1.10266C40.4566 1.65517 41.0824 2.2126 41.652 2.76463L-27.9439 74.5728ZM-27.2483 75.0988C-27.8249 74.5129 -24.1583 78.5058 -18.8645 81.9486L35.6549 -1.88238C40.9436 1.55711 44.6069 5.54653 44.0252 4.9555L-27.2483 75.0988ZM-23.0213 78.9304C-10.1159 89.3538 5.90518 95 22.5 95V-5C28.7059 -5 34.8761 -2.85063 39.8117 1.13577L-23.0213 78.9304ZM22.5 95C41.7709 95 60.1387 87.3915 73.765 73.7655L3.05479 3.05434C8.18176 -2.07255 15.2489 -5 22.5 -5V95ZM73.7663 73.7641C74.776 72.7544 75.7453 71.7257 76.6749 70.6812L1.97699 4.19648C2.31785 3.81351 2.67647 3.43269 3.0534 3.05573L73.7663 73.7641ZM76.6723 70.6842C88.5043 57.3926 95 40.302 95 22.5H-5C-5 15.8246 -2.51539 9.24301 1.97964 4.19349L76.6723 70.6842ZM95 22.5C95 3.22901 87.3914 -15.1389 73.7653 -28.7651L3.05445 41.9454C-2.07245 36.8185 -5 29.7513 -5 22.5H95ZM1.72217 4.21172C2.52115 3.30306 3.39886 2.42675 4.3566 1.59559L69.9002 77.1207C72.3804 74.9682 74.6894 72.6675 76.8198 70.2447L1.72217 4.21172ZM4.31153 1.63475C6.0932 0.084817 8.08144 -1.2435 10.2367 -2.30595L54.4516 87.3882C60.0733 84.617 65.2758 81.1436 69.9452 77.0815L4.31153 1.63475ZM10.2097 -2.29263C10.9693 -2.66764 11.759 -3.01424 12.5765 -3.32767L48.3731 90.0458C50.4662 89.2434 52.5027 88.3504 54.4786 87.3749L10.2097 -2.29263ZM12.5608 -3.32164C15.7039 -4.52783 19.081 -5.16917 22.5 -5.16917V94.8308C31.5355 94.8308 40.2906 93.1475 48.3888 90.0398L12.5608 -3.32164ZM22.5 -5.16917C25.8012 -5.16917 29.0624 -4.57145 32.1093 -3.44612L-2.5362 90.3605C5.32033 93.2622 13.7785 94.8308 22.5 94.8308V-5.16917ZM32.0762 -3.45833C33.3379 -2.99338 34.5462 -2.445 35.694 -1.82495L-11.8356 86.1577C-8.85562 87.7675 -5.73904 89.1802 -2.5031 90.3727L32.0762 -3.45833ZM35.7023 -1.82045C35.7975 -1.76904 35.9629 -1.67869 36.1777 -1.55697L-13.1212 85.4466C-12.6407 85.7188 -12.208 85.9564 -11.8439 86.1532L35.7023 -1.82045ZM36.1789 -1.55633C37.0251 -1.0768 37.8729 -0.536868 38.7138 0.068431L-19.7039 81.2311C-17.5653 82.7703 -15.3659 84.1746 -13.1223 85.4459L36.1789 -1.55633ZM38.64 0.0154013C39.7954 0.84383 40.8798 1.75585 41.8864 2.74269L-28.1175 74.1532C-25.4816 76.7371 -22.6447 79.1226 -19.63 81.2841L38.64 0.0154013ZM41.8746 2.73114C42.4431 3.28808 42.9769 3.85898 43.4751 4.43804L-32.3266 69.6615C-30.9943 71.2099 -29.5877 72.7129 -28.1057 74.1647L41.8746 2.73114ZM43.4659 4.42734C47.5866 9.21358 50.1692 15.5928 50.1692 22.5H-49.8308C-49.8308 40.5134 -43.1728 57.0634 -32.3174 69.6722L43.4659 4.42734ZM50.1692 22.5C50.1692 37.801 37.8011 50.1692 22.5 50.1692V-49.8308C-17.4276 -49.8308 -49.8308 -17.4273 -49.8308 22.5H50.1692ZM22.5 50.1692C7.19893 50.1692 -5.16917 37.801 -5.16917 22.5H94.8308C94.8308 -17.4273 62.4276 -49.8308 22.5 -49.8308V50.1692ZM-5.16917 22.5C-5.16917 15.4886 -2.50869 9.02185 1.72734 4.20584L76.8146 70.2506C87.9698 57.568 94.8308 40.7885 94.8308 22.5H-5.16917Z" fill="black" mask="url(#path-5-inside-1_300_168)"/>
</g>
<defs>
<clipPath id="clip0_300_168">
<rect width="45" height="45" fill="white"/>
</clipPath>
</defs>
</svg>
