<svg width="38" height="38" viewBox="0 0 38 38" fill="none" xmlns="http://www.w3.org/2000/svg">
<g clip-path="url(#clip0_62_82)">
<path d="M19.2718 24.8565C22.5505 24.8043 25.166 22.1042 25.1139 18.8256C25.0617 15.547 22.3616 12.9314 19.083 12.9836C15.8043 13.0357 13.1888 15.7358 13.2409 19.0145C13.2931 22.2931 15.9932 24.9086 19.2718 24.8565Z" fill="#A0616A"/>
<path d="M14.3796 26.2639L15.5668 23.0817L21.9452 22.0175L22.7435 29.0071L16.2832 29.2475L14.3796 26.2639Z" fill="#A0616A"/>
<path d="M25.189 19.92C25.1168 20.2299 24.9728 20.9673 24.7296 20.9748C24.531 20.9809 24.29 17.7955 24.4801 17.265C24.6985 16.6555 24.0871 15.8986 23.6295 15.5123C22.8067 14.8179 21.0295 16.3655 19.1867 15.7065C19.1379 15.6891 19.1476 15.691 18.5655 15.4694C16.7743 14.7876 16.6804 14.7685 16.5782 14.76C15.714 14.6884 14.6723 15.4112 14.256 16.2789C13.8232 17.1809 14.2089 17.9426 13.823 20.1142C13.778 20.3674 13.7068 20.7283 13.5859 20.7355C13.3648 20.7486 13.13 19.5704 13.0685 19.2618C12.8108 17.9688 12.5624 16.7222 13.0056 15.3109C13.054 15.1569 13.3579 14.5836 13.9639 13.4432C14.8368 11.8003 15.2759 10.9758 15.4042 10.8268C16.3244 9.75825 18.0146 8.76992 19.453 9.15696C20.18 9.35259 20.0556 9.68767 20.9483 9.99765C22.5393 10.55 23.9029 9.82184 24.1643 10.317C24.3029 10.5792 23.9305 10.8032 23.9331 11.3086C23.9376 12.1758 25.0381 12.4089 25.6931 13.2566C26.0451 13.7123 26.6353 13.7078 25.189 19.92Z" fill="#2F2E41"/>
<path d="M32.7245 31.1981C32.4895 31.4707 32.2455 31.738 31.9925 31.9992C28.5934 35.5081 24.0312 37.4835 19.1465 37.5612C14.9246 37.6284 10.8987 36.271 7.61831 33.7066C7.61622 33.7053 7.61482 33.7039 7.61274 33.7019C7.17754 33.3623 6.75574 33.0004 6.34805 32.6176C6.35464 32.557 6.36194 32.4971 6.36993 32.4378C6.41997 32.0381 6.47649 31.6569 6.54103 31.3059C7.06947 28.4285 14.5751 25.2971 14.7705 25.2156C14.7732 25.2149 14.7746 25.2142 14.7746 25.2142C14.7746 25.2142 15.8037 28.782 19.9685 28.6696C22.8053 28.5936 22.1995 25.0961 22.1995 25.0961C22.1995 25.0961 22.234 25.1024 22.2989 25.1151C23.1211 25.276 28.8308 26.4353 31.1026 28.1054C31.7949 28.6142 32.3034 29.7133 32.6771 31.0276C32.6931 31.0838 32.7084 31.1413 32.7245 31.1981Z" fill="#5B28A2"/>
<mask id="path-6-inside-1_62_82" fill="white">
<path d="M31.5811 6.13697C28.0722 2.73798 23.4494 0.908683 18.5648 0.986397C13.6801 1.06411 9.1179 3.03954 5.71884 6.54843C2.31983 10.0574 0.490577 14.6801 0.568291 19.5648C0.639223 24.0232 2.29097 28.213 5.2479 31.495C5.53003 31.8089 5.8244 32.1143 6.13031 32.4107C6.20225 32.4804 6.27487 32.5501 6.34816 32.6177C6.75585 33.0004 7.17766 33.3623 7.61285 33.7019C7.61494 33.704 7.61633 33.7054 7.61842 33.7067C10.8988 36.271 14.9247 37.6284 19.1467 37.5612C24.0313 37.4835 28.5935 35.5082 31.9926 31.9993C32.2456 31.738 32.4896 31.4708 32.7246 31.1982C35.653 27.8012 37.2151 23.5046 37.1431 18.9829C37.0654 14.0982 35.0901 9.53602 31.5811 6.13697ZM32.6772 31.0277C32.1459 31.6516 31.5735 32.2397 30.9633 32.7865C29.806 33.8261 28.5136 34.7186 27.116 35.4354C26.6255 35.6874 26.1224 35.9174 25.6072 36.1244C23.6058 36.9292 21.427 37.3874 19.1445 37.4237C16.9417 37.4588 14.8235 37.0978 12.8574 36.407C12.0504 36.1241 11.2693 35.7852 10.5184 35.3948C10.4081 35.3375 10.2985 35.2794 10.1896 35.2199C9.61664 34.9072 9.06174 34.5646 8.5284 34.1935C7.76422 33.6638 7.04244 33.0763 6.37005 32.4378C5.99302 32.08 5.63225 31.7069 5.28705 31.3184C2.49954 28.1829 0.777598 24.076 0.70579 19.5626C0.546569 9.55473 8.55905 1.28312 18.567 1.1239C28.5749 0.964674 36.8464 8.97721 37.0056 18.9851C37.0786 23.5679 35.4382 27.7861 32.6772 31.0277Z"/>
</mask>
<path d="M31.5811 6.13697C28.0722 2.73798 23.4494 0.908683 18.5648 0.986397C13.6801 1.06411 9.1179 3.03954 5.71884 6.54843C2.31983 10.0574 0.490577 14.6801 0.568291 19.5648C0.639223 24.0232 2.29097 28.213 5.2479 31.495C5.53003 31.8089 5.8244 32.1143 6.13031 32.4107C6.20225 32.4804 6.27487 32.5501 6.34816 32.6177C6.75585 33.0004 7.17766 33.3623 7.61285 33.7019C7.61494 33.704 7.61633 33.7054 7.61842 33.7067C10.8988 36.271 14.9247 37.6284 19.1467 37.5612C24.0313 37.4835 28.5935 35.5082 31.9926 31.9993C32.2456 31.738 32.4896 31.4708 32.7246 31.1982C35.653 27.8012 37.2151 23.5046 37.1431 18.9829C37.0654 14.0982 35.0901 9.53602 31.5811 6.13697ZM32.6772 31.0277C32.1459 31.6516 31.5735 32.2397 30.9633 32.7865C29.806 33.8261 28.5136 34.7186 27.116 35.4354C26.6255 35.6874 26.1224 35.9174 25.6072 36.1244C23.6058 36.9292 21.427 37.3874 19.1445 37.4237C16.9417 37.4588 14.8235 37.0978 12.8574 36.407C12.0504 36.1241 11.2693 35.7852 10.5184 35.3948C10.4081 35.3375 10.2985 35.2794 10.1896 35.2199C9.61664 34.9072 9.06174 34.5646 8.5284 34.1935C7.76422 33.6638 7.04244 33.0763 6.37005 32.4378C5.99302 32.08 5.63225 31.7069 5.28705 31.3184C2.49954 28.1829 0.777598 24.076 0.70579 19.5626C0.546569 9.55473 8.55905 1.28312 18.567 1.1239C28.5749 0.964674 36.8464 8.97721 37.0056 18.9851C37.0786 23.5679 35.4382 27.7861 32.6772 31.0277Z" fill="#3F3D56"/>
<path d="M31.5811 6.13697L66.3697 -29.7762L66.3693 -29.7766L31.5811 6.13697ZM5.71884 6.54843L-30.1941 -28.2404L-30.1946 -28.2398L5.71884 6.54843ZM5.2479 31.495L42.4349 -1.92848L42.4149 -1.95072L42.3949 -1.97294L5.2479 31.495ZM6.13031 32.4107L-28.6622 68.3201L-28.6538 68.3282L-28.6454 68.3364L6.13031 32.4107ZM6.34816 32.6177L40.5705 -3.83544L40.4108 -3.98542L40.2497 -4.13399L6.34816 32.6177ZM7.61285 33.7019L42.6872 -1.9322L40.6387 -3.94856L38.3725 -5.71688L7.61285 33.7019ZM7.61842 33.7067L38.4122 -5.68551L36.386 -7.26946L34.2079 -8.63715L7.61842 33.7067ZM31.9926 31.9993L67.9056 66.788L67.907 66.7866L31.9926 31.9993ZM32.7246 31.1982L-5.14585 -1.4489L-5.14845 -1.44587L32.7246 31.1982ZM32.6772 31.0277L-5.38701 -1.39329L-5.39209 -1.38733L32.6772 31.0277ZM30.9633 32.7865L-2.40507 -4.44993L-2.4273 -4.43L-2.44951 -4.41005L30.9633 32.7865ZM27.116 35.4354L4.2979 -9.05429L4.2845 -9.04742L4.27112 -9.04054L27.116 35.4354ZM25.6072 36.1244L6.96849 -10.2717L6.96067 -10.2686L6.95285 -10.2654L25.6072 36.1244ZM12.8574 36.407L29.4319 -10.7659L29.4152 -10.7718L29.3986 -10.7776L12.8574 36.407ZM10.5184 35.3948L-12.552 79.7542L-12.5436 79.7586L10.5184 35.3948ZM10.1896 35.2199L-13.7658 79.1077L-13.7647 79.1083L10.1896 35.2199ZM8.5284 34.1935L37.088 -6.84732L37.0507 -6.87328L37.0133 -6.89917L8.5284 34.1935ZM6.37005 32.4378L40.7996 -3.81971L40.7936 -3.82539L40.7876 -3.83107L6.37005 32.4378ZM5.28705 31.3184L42.6643 -1.89215L42.655 -1.9027L5.28705 31.3184ZM66.3693 -29.7766C53.3361 -42.4013 35.9138 -49.2959 17.7694 -49.0073L19.3602 50.9801C10.985 51.1133 2.80822 47.8773 -3.20706 42.0505L66.3693 -29.7766ZM17.7694 -49.0073C-0.375147 -48.7186 -17.5692 -41.2732 -30.1941 -28.2404L41.6318 41.3372C35.805 47.3523 27.7353 50.8468 19.3602 50.9801L17.7694 -49.0073ZM-30.1946 -28.2398C-42.8196 -15.2065 -49.7141 2.21594 -49.4254 20.3602L50.562 18.7694C50.6952 27.1443 47.4593 35.3212 41.6323 41.3367L-30.1946 -28.2398ZM-49.4254 20.3602C-49.1626 36.8775 -42.9645 52.6811 -31.899 64.963L42.3949 -1.97294C47.5465 3.74495 50.441 11.1689 50.562 18.7694L-49.4254 20.3602ZM-31.9391 64.9185C-30.8782 66.0988 -29.7844 67.2328 -28.6622 68.3201L40.9228 -3.49866C41.4332 -3.00407 41.9383 -2.481 42.4349 -1.92848L-31.9391 64.9185ZM-28.6454 68.3364C-28.5 68.4771 -28.0802 68.8834 -27.5534 69.3693L40.2497 -4.13399C40.4531 -3.9464 40.6151 -3.79329 40.7199 -3.69348C40.8226 -3.59566 40.8948 -3.52569 40.906 -3.51488L-28.6454 68.3364ZM-27.8742 69.0708C-26.3867 70.4673 -24.8114 71.8218 -23.1468 73.1207L38.3725 -5.71688C39.1667 -5.09717 39.8984 -4.46645 40.5705 -3.83544L-27.8742 69.0708ZM-27.4615 69.336C-28.0478 68.7589 -24.3184 72.6926 -18.9711 76.0505L34.2079 -8.63715C39.5511 -5.28192 43.2777 -1.35096 42.6872 -1.9322L-27.4615 69.336ZM-23.1754 73.0988C-10.8609 82.7253 4.3212 87.8034 19.942 87.5549L18.3513 -12.4324C25.5283 -12.5466 32.6586 -10.1832 38.4122 -5.68551L-23.1754 73.0988ZM19.942 87.5549C38.086 87.2663 55.2803 79.8213 67.9056 66.788L-3.92045 -2.78943C1.90676 -8.80497 9.97663 -12.2992 18.3513 -12.4324L19.942 87.5549ZM67.907 66.7866C68.8422 65.8211 69.7388 64.8385 70.5976 63.8422L-5.14845 -1.44587C-4.75964 -1.89697 -4.35095 -2.34498 -3.92182 -2.78801L67.907 66.7866ZM70.595 63.8452C81.54 51.1491 87.4034 34.9464 87.1368 18.1875L-12.8505 19.7783C-12.9733 12.0628 -10.2341 4.45344 -5.14585 -1.4489L70.595 63.8452ZM87.1368 18.1875C86.8481 0.043381 79.4031 -17.151 66.3697 -29.7762L-3.20741 42.0502C-9.22296 36.223 -12.7173 28.1531 -12.8505 19.7783L87.1368 18.1875ZM-5.39209 -1.38733C-4.48537 -2.45221 -3.48993 -3.47776 -2.40507 -4.44993L64.3316 70.023C66.6369 67.9572 68.7772 65.7554 70.7464 63.4427L-5.39209 -1.38733ZM-2.44951 -4.41005C-0.426311 -6.22744 1.83805 -7.79267 4.2979 -9.05429L49.934 79.9252C55.1891 77.2299 60.0383 73.8797 64.3761 69.9831L-2.44951 -4.41005ZM4.27112 -9.04054C5.13754 -9.48558 6.0374 -9.89766 6.96849 -10.2717L44.2458 82.5205C46.2074 81.7325 48.1135 80.8603 49.9608 79.9114L4.27112 -9.04054ZM6.95285 -10.2654C10.5371 -11.7067 14.4051 -12.5072 18.3491 -12.5699L19.9399 87.4174C28.4488 87.282 36.6744 85.5652 44.2615 82.5142L6.95285 -10.2654ZM18.3491 -12.5699C22.1569 -12.6305 25.9148 -12.0016 29.4319 -10.7659L-3.71702 83.58C3.7321 86.1973 11.7265 87.5481 19.9399 87.4174L18.3491 -12.5699ZM29.3986 -10.7776C30.8533 -10.2676 32.25 -9.66054 33.5804 -8.96896L-12.5436 79.7586C-9.71132 81.2309 -6.75245 82.5159 -3.68374 83.5917L29.3986 -10.7776ZM33.5887 -8.9646C33.7101 -8.90151 33.9021 -8.80043 34.1439 -8.66845L-13.7647 79.1083C-13.3051 79.3592 -12.8938 79.5765 -12.552 79.7542L33.5887 -8.9646ZM34.1451 -8.66783C35.1307 -8.12982 36.1147 -7.5246 37.088 -6.84732L-20.0312 75.2343C-17.9913 76.6539 -15.8975 77.9442 -13.7658 79.1077L34.1451 -8.66783ZM37.0133 -6.89917C38.3577 -5.96728 39.6225 -4.93739 40.7996 -3.81971L-28.0595 68.6953C-25.5377 71.09 -22.8293 73.2949 -19.9566 75.2862L37.0133 -6.89917ZM40.7876 -3.83107C41.4517 -3.20089 42.0775 -2.55265 42.6643 -1.89215L-32.0902 64.5289C-30.813 65.9664 -29.4656 67.361 -28.0475 68.7067L40.7876 -3.83107ZM42.655 -1.9027C47.4929 3.53915 50.5731 10.8219 50.6995 18.7672L-49.2879 20.358C-49.0179 37.3301 -42.4938 52.8267 -32.0809 64.5394L42.655 -1.9027ZM50.6995 18.7672C50.9795 36.37 36.9653 50.8375 19.3623 51.1176L17.7716 -48.8698C-19.8472 -48.2713 -49.8864 -17.2605 -49.2879 20.358L50.6995 18.7672ZM19.3623 51.1176C1.75941 51.3976 -12.708 37.3832 -12.988 19.7804L86.9993 18.1897C86.4008 -19.4288 55.3903 -49.4683 17.7716 -48.8698L19.3623 51.1176ZM-12.988 19.7804C-13.1164 11.715 -10.1815 4.2357 -5.38701 -1.39329L70.7414 63.4486C81.0578 51.3364 87.2735 35.4208 86.9993 18.1897L-12.988 19.7804Z" fill="white" mask="url(#path-6-inside-1_62_82)"/>
</g>
<defs>
<clipPath id="clip0_62_82">
<rect x="0.277344" y="1.27734" width="36.5795" height="36.5795" rx="18.2897" transform="rotate(-0.91148 0.277344 1.27734)" fill="white"/>
</clipPath>
</defs>
</svg>
